<svg width="720" height="1024" viewBox="0 0 720 1024" fill="none" xmlns="http://www.w3.org/2000/svg">
<rect width="720" height="1024" fill="#F2F2FF"/>
<mask id="mask0_1_639" style="mask-type:alpha" maskUnits="userSpaceOnUse" x="0" y="0" width="720" height="1024">
<rect width="720" height="1024" fill="#F2F2FF"/>
</mask>
<g mask="url(#mask0_1_639)">
<circle cx="631.5" cy="1058.5" r="429.5" fill="#00218F"/>
<path d="M398.223 263.223C361.809 288.026 320.866 305.413 277.732 314.392C234.599 323.372 190.119 323.768 146.832 315.557C103.545 307.346 62.2997 290.69 25.4501 266.54C-11.3995 242.389 -43.1314 211.217 -67.934 174.802C-92.7365 138.388 -110.124 97.4456 -119.103 54.3119C-128.083 11.1782 -128.479 -33.3018 -120.268 -76.5885C-112.057 -119.875 -95.4012 -161.121 -71.2505 -197.97C-47.0998 -234.82 -15.9275 -266.552 20.4866 -291.355L209.355 -14.0658L398.223 263.223Z" fill="#00218F"/>
<path d="M367.928 -125.533C393.133 -143.585 421.646 -156.497 451.84 -163.53C482.034 -170.563 513.318 -171.58 543.905 -166.522C574.492 -161.465 603.784 -150.433 630.108 -134.056C656.431 -117.678 679.271 -96.2762 697.324 -71.0719C715.376 -45.8675 728.287 -17.3542 735.32 12.8399C742.353 43.0341 743.37 74.3178 738.313 104.905C733.256 135.492 722.224 164.784 705.846 191.107C689.469 217.431 668.067 240.271 642.863 258.323L505.396 66.3953L367.928 -125.533Z" fill="#4FD8CD"/>
<path d="M-159.5 426C-124.503 426 -89.8482 434.199 -57.5149 450.13C-25.1816 466.061 4.19712 489.411 28.9439 518.847C53.6907 548.283 73.321 583.229 86.7139 621.689C100.107 660.15 107 701.371 107 743C107 784.629 100.107 825.85 86.7139 864.311C73.321 902.771 53.6908 937.717 28.9439 967.153C4.19714 996.589 -25.1816 1019.94 -57.5149 1035.87C-89.8481 1051.8 -124.503 1060 -159.5 1060L-159.5 743L-159.5 426Z" fill="#4FD8CD"/>
</g>
</svg>
