<svg width="191" height="39" viewBox="0 0 191 39" fill="none" xmlns="http://www.w3.org/2000/svg">
<path fill-rule="evenodd" clip-rule="evenodd" d="M16.5528 19.8203C18.0291 20.0321 19.0543 21.4005 18.8426 22.8769C18.7959 23.2026 18.7553 23.5844 18.7036 24.0693L18.699 24.1131C18.6473 24.5988 18.5867 25.1618 18.5048 25.7492C18.3428 26.911 18.0818 28.2951 17.5551 29.6281C17.0238 30.9725 16.1754 32.3839 14.7708 33.4519C13.3364 34.5426 11.5428 35.1071 9.43498 35.1071C7.32793 35.1071 5.52722 34.5438 4.07551 33.4818C2.64862 32.438 1.7441 31.0488 1.16865 29.6864C0.0561369 27.0524 -8.75548e-06 24.0802 1.02362e-09 22.4935C8.24244e-06 21.002 1.20909 19.793 2.70056 19.793C4.19203 19.793 5.4011 21.0021 5.40109 22.4935C5.40108 24.0685 5.49701 26.0527 6.14414 27.5849C6.44852 28.3055 6.82571 28.8017 7.26437 29.1226C7.67821 29.4253 8.32688 29.706 9.43498 29.706C10.5423 29.706 11.1414 29.4265 11.5017 29.1525C11.8918 28.8559 12.2401 28.3818 12.532 27.6431C12.8284 26.8931 13.017 25.9965 13.1555 25.0033C13.2238 24.5131 13.2762 24.03 13.3282 23.5413C13.3313 23.5121 13.3345 23.4828 13.3376 23.4534C13.3847 23.0098 13.435 22.5368 13.4962 22.1102C13.7079 20.6338 15.0764 19.6086 16.5528 19.8203Z" fill="#4FD8CD"/>
<path fill-rule="evenodd" clip-rule="evenodd" d="M20.19 18.1766C19.4223 19.5862 19.0885 21.3989 18.8766 22.8769C18.6649 24.3533 17.2964 25.3785 15.82 25.1667C14.3437 24.955 13.3185 23.5865 13.5302 22.1102C13.7439 20.6197 14.1703 17.937 15.4467 15.5933C16.8048 13.0996 19.2589 10.8022 23.2851 10.8022C27.1582 10.8022 29.8223 12.8451 31.4039 15.2838C32.9192 17.6202 33.5208 20.397 33.5208 22.4935V32.4065C33.5208 33.898 32.3117 35.1071 30.8202 35.1071C29.3287 35.1071 28.1197 33.898 28.1197 32.4065V22.4935C28.1197 21.2704 27.7344 19.5518 26.8724 18.2227C26.0768 16.9959 24.9733 16.2032 23.2851 16.2032C21.7499 16.2032 20.876 16.917 20.19 18.1766Z" fill="#00218F"/>
<path d="M12.9619 11.3423C12.9619 13.4304 11.2692 15.1231 9.18111 15.1231C7.09305 15.1231 5.40034 13.4304 5.40034 11.3423C5.40034 9.25426 7.09305 7.56155 9.18111 7.56155C11.2692 7.56155 12.9619 9.25426 12.9619 11.3423Z" fill="#4FD8CD"/>
<path d="M27.0054 3.78077C27.0054 5.86882 25.3127 7.56153 23.2246 7.56153C21.1366 7.56153 19.4439 5.86882 19.4439 3.78077C19.4439 1.69271 21.1366 0 23.2246 0C25.3127 0 27.0054 1.69271 27.0054 3.78077Z" fill="#00218F"/>
<circle cx="16.203" cy="22.6846" r="2.70055" fill="#3084B6"/>
<path d="M50.0937 32.4063V11.6272H54.7213V32.4063H50.0937ZM46.7666 21.6387V17.7067H58.0484V21.6387H46.7666Z" fill="#00218F"/>
<path d="M65.932 32.7088C64.581 32.7088 63.3712 32.3761 62.3025 31.7107C61.2539 31.0453 60.4171 30.1379 59.792 28.9885C59.1871 27.8392 58.8847 26.5285 58.8847 25.0565C58.8847 23.5845 59.1871 22.2739 59.792 21.1245C60.4171 19.9752 61.2539 19.0678 62.3025 18.4024C63.3712 17.737 64.581 17.4043 65.932 17.4043C66.92 17.4043 67.8073 17.5958 68.5937 17.9789C69.4002 18.362 70.0556 18.8964 70.5597 19.582C71.0638 20.2474 71.3461 21.0136 71.4066 21.8807V28.2324C71.3461 29.0994 71.0638 29.8757 70.5597 30.5613C70.0757 31.2267 69.4305 31.751 68.6239 32.1341C67.8174 32.5172 66.92 32.7088 65.932 32.7088ZM66.8696 28.5348C67.8577 28.5348 68.6542 28.2122 69.2591 27.5669C69.864 26.9015 70.1665 26.0647 70.1665 25.0565C70.1665 24.3709 70.0253 23.766 69.743 23.2418C69.4809 22.7175 69.0978 22.3142 68.5937 22.0319C68.1097 21.7294 67.5451 21.5782 66.8999 21.5782C66.2546 21.5782 65.68 21.7294 65.1759 22.0319C64.6919 22.3142 64.2987 22.7175 63.9963 23.2418C63.714 23.766 63.5728 24.3709 63.5728 25.0565C63.5728 25.7219 63.714 26.3168 63.9963 26.841C64.2786 27.3653 64.6718 27.7787 65.1759 28.0811C65.68 28.3836 66.2446 28.5348 66.8696 28.5348ZM69.985 32.4063V28.4441L70.6807 24.875L69.985 21.306V17.7067H74.5219V32.4063H69.985Z" fill="#00218F"/>
<path d="M77.7802 32.4063V17.7067H82.4079V32.4063H77.7802ZM87.1868 32.4063V23.8164C87.1868 23.0704 86.9549 22.4957 86.4911 22.0924C86.0475 21.669 85.493 21.4572 84.8276 21.4572C84.3638 21.4572 83.9504 21.5581 83.5875 21.7597C83.2245 21.9412 82.9321 22.2033 82.7103 22.5461C82.5087 22.8889 82.4079 23.3123 82.4079 23.8164L80.6234 23.03C80.6234 21.8605 80.8754 20.8624 81.3795 20.0357C81.8836 19.1888 82.5692 18.5435 83.4362 18.0999C84.3033 17.6361 85.2813 17.4043 86.3701 17.4043C87.3985 17.4043 88.3159 17.6361 89.1225 18.0999C89.9492 18.5637 90.6046 19.2089 91.0885 20.0357C91.5725 20.8624 91.8144 21.8504 91.8144 22.9998V32.4063H87.1868ZM96.5933 32.4063V23.8164C96.5933 23.0704 96.3614 22.4957 95.8976 22.0924C95.454 21.669 94.8995 21.4572 94.2341 21.4572C93.7703 21.4572 93.357 21.5581 92.994 21.7597C92.6311 21.9412 92.3387 22.2033 92.1169 22.5461C91.9152 22.8889 91.8144 23.3123 91.8144 23.8164L89.1528 23.4535C89.1931 22.2033 89.4855 21.1346 90.0299 20.2474C90.5945 19.34 91.3305 18.6443 92.2379 18.1604C93.1654 17.6563 94.2039 17.4043 95.3532 17.4043C96.4824 17.4043 97.4805 17.6462 98.3476 18.1302C99.2348 18.5939 99.9305 19.2694 100.435 20.1566C100.959 21.0237 101.221 22.0722 101.221 23.3022V32.4063H96.5933Z" fill="#00218F"/>
<path d="M111.264 32.739C109.752 32.739 108.381 32.4063 107.151 31.7409C105.941 31.0553 104.983 30.1278 104.277 28.9583C103.571 27.7888 103.219 26.4781 103.219 25.0263C103.219 23.5745 103.571 22.2739 104.277 21.1245C104.983 19.9752 105.941 19.0678 107.151 18.4024C108.36 17.7168 109.732 17.374 111.264 17.374C112.797 17.374 114.168 17.7067 115.378 18.3721C116.587 19.0375 117.545 19.955 118.251 21.1245C118.957 22.2739 119.31 23.5745 119.31 25.0263C119.31 26.4781 118.957 27.7888 118.251 28.9583C117.545 30.1278 116.587 31.0553 115.378 31.7409C114.168 32.4063 112.797 32.739 111.264 32.739ZM111.264 28.5348C111.93 28.5348 112.514 28.3937 113.018 28.1114C113.522 27.8089 113.906 27.3956 114.168 26.8713C114.45 26.3269 114.591 25.7119 114.591 25.0263C114.591 24.3407 114.45 23.7459 114.168 23.2418C113.885 22.7175 113.492 22.3142 112.988 22.0319C112.504 21.7294 111.93 21.5782 111.264 21.5782C110.619 21.5782 110.044 21.7294 109.54 22.0319C109.036 22.3142 108.643 22.7175 108.36 23.2418C108.078 23.766 107.937 24.3709 107.937 25.0565C107.937 25.7219 108.078 26.3269 108.36 26.8713C108.643 27.3956 109.036 27.8089 109.54 28.1114C110.044 28.3937 110.619 28.5348 111.264 28.5348Z" fill="#00218F"/>
<path d="M120.767 39C119.698 39 118.79 38.8185 118.044 38.4556C117.298 38.1128 116.643 37.6187 116.078 36.9735L118.952 34.1001C119.174 34.3622 119.406 34.5437 119.647 34.6445C119.869 34.7655 120.131 34.826 120.434 34.826C120.877 34.826 121.24 34.695 121.523 34.4328C121.825 34.1707 121.976 33.7674 121.976 33.223V17.7067H126.604V33.1625C126.604 34.3522 126.352 35.3805 125.848 36.2476C125.344 37.1146 124.648 37.7901 123.761 38.2741C122.894 38.758 121.896 39 120.767 39ZM124.336 15.6802C123.61 15.6802 123.005 15.4383 122.521 14.9543C122.057 14.4502 121.825 13.8453 121.825 13.1396C121.825 12.4136 122.057 11.8087 122.521 11.3248C123.005 10.8408 123.61 10.5989 124.336 10.5989C125.062 10.5989 125.656 10.8408 126.12 11.3248C126.584 11.8087 126.816 12.4136 126.816 13.1396C126.816 13.8453 126.584 14.4502 126.12 14.9543C125.656 15.4383 125.062 15.6802 124.336 15.6802Z" fill="#00218F"/>
<path d="M136.417 32.739C135.066 32.739 133.866 32.4668 132.818 31.9224C131.789 31.3578 130.983 30.5916 130.398 29.6237C129.813 28.6356 129.521 27.5065 129.521 26.2361V17.7067H134.149V26.1756C134.149 26.6797 134.229 27.1133 134.391 27.4762C134.572 27.8392 134.834 28.1215 135.177 28.3231C135.52 28.5247 135.933 28.6256 136.417 28.6256C137.103 28.6256 137.647 28.4138 138.05 27.9904C138.454 27.5468 138.655 26.9419 138.655 26.1756V17.7067H143.283V26.2059C143.283 27.4964 142.991 28.6356 142.406 29.6237C141.821 30.5916 141.014 31.3578 139.986 31.9224C138.958 32.4668 137.768 32.739 136.417 32.739Z" fill="#00218F"/>
<path d="M155.897 32.4063V24.0282C155.897 23.2619 155.655 22.6469 155.172 22.1831C154.708 21.6992 154.113 21.4572 153.387 21.4572C152.883 21.4572 152.439 21.5681 152.056 21.7899C151.673 21.9916 151.371 22.294 151.149 22.6973C150.927 23.0804 150.816 23.5241 150.816 24.0282L149.032 23.151C149.032 22.0017 149.284 20.9935 149.788 20.1264C150.292 19.2593 150.987 18.5939 151.875 18.1302C152.782 17.6462 153.8 17.4043 154.93 17.4043C156.018 17.4043 156.976 17.6664 157.803 18.1907C158.65 18.6948 159.315 19.3702 159.799 20.2171C160.283 21.064 160.525 21.9916 160.525 22.9998V32.4063H155.897ZM146.188 32.4063V17.7067H150.816V32.4063H146.188Z" fill="#00218F"/>
<path d="M165.407 32.4063V11.6272H170.035V32.4063H165.407ZM162.08 21.6387V17.7067H173.362V21.6387H162.08Z" fill="#00218F"/>
<path d="M182.183 32.739C180.671 32.739 179.3 32.4063 178.07 31.7409C176.86 31.0553 175.902 30.1278 175.196 28.9583C174.49 27.7888 174.138 26.4781 174.138 25.0263C174.138 23.5745 174.49 22.2739 175.196 21.1245C175.902 19.9752 176.86 19.0678 178.07 18.4024C179.279 17.7168 180.65 17.374 182.183 17.374C183.715 17.374 185.087 17.7067 186.296 18.3721C187.506 19.0375 188.464 19.955 189.17 21.1245C189.876 22.2739 190.228 23.5745 190.228 25.0263C190.228 26.4781 189.876 27.7888 189.17 28.9583C188.464 30.1278 187.506 31.0553 186.296 31.7409C185.087 32.4063 183.715 32.739 182.183 32.739ZM182.183 28.5348C182.848 28.5348 183.433 28.3937 183.937 28.1114C184.441 27.8089 184.824 27.3956 185.087 26.8713C185.369 26.3269 185.51 25.7119 185.51 25.0263C185.51 24.3407 185.369 23.7459 185.087 23.2418C184.804 22.7175 184.411 22.3142 183.907 22.0319C183.423 21.7294 182.848 21.5782 182.183 21.5782C181.538 21.5782 180.963 21.7294 180.459 22.0319C179.955 22.3142 179.562 22.7175 179.279 23.2418C178.997 23.766 178.856 24.3709 178.856 25.0565C178.856 25.7219 178.997 26.3269 179.279 26.8713C179.562 27.3956 179.955 27.8089 180.459 28.1114C180.963 28.3937 181.538 28.5348 182.183 28.5348Z" fill="#00218F"/>
</svg>
